<?xml version="1.0" encoding="utf-8"?>
<!-- Generator: Adobe Illustrator 18.1.1, SVG Export Plug-In . SVG Version: 6.00 Build 0)  -->
<!DOCTYPE svg PUBLIC "-//W3C//DTD SVG 1.1//EN" "http://www.w3.org/Graphics/SVG/1.1/DTD/svg11.dtd">
<svg version="1.1" id="Layer_1" xmlns="http://www.w3.org/2000/svg" xmlns:xlink="http://www.w3.org/1999/xlink" x="0px" y="0px"
	 viewBox="0 1014.4 595.3 190.3" enable-background="new 0 1014.4 595.3 190.3" xml:space="preserve">
<g id="Solid">
</g>
<g id="Colours">
</g>
<g id="Vertical">
</g>
<g id="Horizontal">
</g>
<g id="Lines">
</g>
<g>
	<path fill="#FFFFFF" d="M321.5,1072.9c0-0.4-0.3-0.6-0.7-0.6h-1.3v1.3h1.3C321.3,1073.5,321.5,1073.2,321.5,1072.9z"/>
	<path fill="#FFFFFF" d="M169.2,1072.3h-1.4v1.3h1.4c0.4,0,0.7-0.3,0.7-0.6C169.9,1072.5,169.6,1072.3,169.2,1072.3z"/>
	<polygon fill="#FFFFFF" points="68.9,1050.6 70.7,1050.6 69.7,1048.3 	"/>
	<path fill="#FFFFFF" d="M185.5,1072.3h-1.4v1.3h1.4c0.4,0,0.7-0.3,0.7-0.6C186.2,1072.5,186,1072.3,185.5,1072.3z"/>
	<path fill="#FFFFFF" d="M341.6,1072.1c-0.9,0-1.4,0.7-1.4,1.5s0.5,1.5,1.4,1.5s1.4-0.7,1.4-1.5
		C343,1072.9,342.5,1072.1,341.6,1072.1z"/>
	<path fill="#FFFFFF" d="M315.9,1072.1c-0.9,0-1.4,0.7-1.4,1.5s0.5,1.5,1.4,1.5s1.4-0.7,1.4-1.5
		C317.3,1072.9,316.9,1072.1,315.9,1072.1z"/>
	<path fill="#FFFFFF" d="M202.2,1132.2c0.5,0,1-0.4,1-0.8s-0.4-0.8-1-0.8s-1,0.3-1,0.8C201.2,1131.9,201.7,1132.2,202.2,1132.2z"/>
	<path fill="#FFFFFF" d="M202.2,1132.7c-0.8,0-1.3,0.4-1.3,1s0.5,1,1.3,1s1.3-0.4,1.3-1C203.5,1133.2,202.9,1132.7,202.2,1132.7z"/>
	<path fill="#FFFFFF" d="M204.7,1100.9c-0.1,0-0.1,0-0.4,0c-17.3,0.1-31.4,14.3-31.4,31.7c0,17.5,14.2,31.7,31.7,31.7
		s31.7-14.2,31.7-31.7c0-3.4-0.5-6.6-1.5-9.7C230.8,1110.2,218.8,1100.9,204.7,1100.9z M202.2,1135.2c-1.3,0-2-0.7-2-1.6
		c0-0.7,0.4-1.1,1-1.4c-0.4-0.3-0.7-0.6-0.7-1c0-0.8,0.7-1.3,1.6-1.3c1,0,1.6,0.5,1.6,1.3c0,0.4-0.3,0.8-0.7,1c0.6,0.1,1,0.6,1,1.4
		C204.2,1134.6,203.5,1135.2,202.2,1135.2z M208.8,1135.2h-3.3c-0.1,0-0.4-0.1-0.4-0.4c0-1.2,0.6-1.6,1.6-2.2c1-0.4,1.5-0.8,1.5-1.3
		c0-0.4-0.4-0.7-1.1-0.7c-0.5,0-1,0.1-1.4,0.4c-0.1,0-0.1,0.1-0.1,0.1c-0.1,0-0.4-0.1-0.4-0.3c0-0.3,0.1-0.4,0.5-0.5
		c0.5-0.3,1-0.3,1.4-0.3c1.1,0,1.9,0.4,1.9,1.3c0,0.7-0.5,1.1-1.6,1.6c-1,0.5-1.5,0.8-1.5,1.5h2.8c0.1,0,0.4,0.1,0.4,0.4
		C209,1135.1,209,1135.2,208.8,1135.2z"/>
	<polygon fill="#FFFFFF" points="52.1,1074.1 53.5,1074.1 52.8,1072.5 	"/>
	<path fill="#FFFFFF" d="M49.6,1072.9c0-0.4-0.3-0.6-0.7-0.6h-1.4v1.3H49C49.4,1073.5,49.6,1073.2,49.6,1072.9z"/>
	<path fill="#FFFFFF" d="M33.6,1121.3c-3.9,0-6,2.5-6,6c0,3.6,2.1,6,6,6s6-2.5,6-6C39.7,1123.6,37.5,1121.3,33.6,1121.3z"/>
	<path fill="#FFFFFF" d="M346.6,1072.3h-1.4v1.3h1.4c0.4,0,0.7-0.3,0.7-0.6C347.2,1072.5,347,1072.3,346.6,1072.3z"/>
	<path fill="#FFFFFF" d="M586.6,1014.4H8.7c-4.8,0-8.7,3.9-8.7,8.7V1196c0,4.8,3.9,8.7,8.7,8.7h577.9c4.8,0,8.7-3.9,8.7-8.7v-172.9
		C595.4,1018.3,591.4,1014.4,586.6,1014.4z M19.2,1031.8h556.1v0.9H19.2V1031.8z M570.9,1051.9v-0.9H570v-0.9h-0.9v-0.9h-0.9v0.9
		h-0.9v0.9h-0.9v0.9h-0.9v0.9h-0.9v-0.9h0.9v-0.9h0.9v-0.9h0.9v-0.9h0.9v-0.8h0.9v0.9h0.9v0.9h0.9v0.9h0.9v0.9h0.9v0.9h-0.9v-0.9
		L570.9,1051.9L570.9,1051.9L570.9,1051.9z M570.1,1067.6v-0.9h0.9v0.9H570.1z M570.9,1079v0.9H570v-0.9H570.9z M568.3,1067.6v-0.9
		h0.9v0.9H568.3z M569.2,1079v0.9h-0.9v-0.9H569.2z M566.6,1067.6v-0.9h0.9v0.9H566.6z M567.4,1079v0.9h-0.9v-0.9H567.4z
		 M538.6,1067.6v-0.9h0.9v0.9H538.6z M539.5,1079v0.9h-0.9v-0.9H539.5z M536.9,1067.6v-0.9h0.9v0.9H536.9z M537.8,1079v0.9h-0.9
		v-0.9H537.8z M535.1,1067.6v-0.9h0.9v0.9H535.1z M536,1079v0.9h-0.9v-0.9H536z M533.4,1067.6v-0.9h0.9v0.9H533.4z M534.3,1079v0.9
		h-0.9v-0.9H534.3z M507.2,1067.6v-0.9h0.9v0.9H507.2z M508.1,1079v0.9h-0.9v-0.9H508.1z M505.5,1067.6v-0.9h0.9v0.9H505.5z
		 M506.3,1079v0.9h-0.9v-0.9H506.3z M503.7,1067.6v-0.9h0.9v0.9H503.7z M504.6,1079v0.9h-0.9v-0.9H504.6z M502,1067.6v-0.9h0.9v0.9
		H502z M502.9,1079v0.9H502v-0.9H502.9z M471.4,1079v0.9h-0.9v-0.9H471.4z M470.6,1067.6v-0.9h0.9v0.9H470.6z M470.6,1099.9h5.2
		v62.9h-5.2V1099.9z M473.2,1079v0.9h-0.9v-0.9H473.2z M472.3,1067.6v-0.9h0.9v0.9H472.3z M474.1,1079.9v-0.9h0.9v0.9H474.1z
		 M474.9,1067.6h-0.8v-0.9h0.9L474.9,1067.6L474.9,1067.6z M442.6,1067.6v-0.9h0.9v0.9H442.6z M443.5,1079v0.9h-0.9v-0.9H443.5z
		 M440.9,1067.6v-0.9h0.9v0.9H440.9z M441.7,1079v0.9h-0.9v-0.9H441.7z M439.1,1067.6v-0.9h0.9v0.9H439.1z M440,1079v0.9h-0.9v-0.9
		H440z M437.4,1067.6v-0.9h0.9v0.9H437.4z M438.3,1079v0.9h-0.9v-0.9H438.3z M409.4,1067.6v-0.9h0.9v0.9H409.4z M410.3,1079v0.9
		h-0.9v-0.9H410.3z M407.7,1067.6v-0.9h0.9v0.9H407.7z M408.6,1079v0.9h-0.9v-0.9H408.6z M406,1067.6v-0.9h0.9v0.9H406z M406.8,1079
		v0.9h-0.9v-0.9H406.8z M378,1067.6v-0.9h0.9v0.9H378z M378.9,1079v0.9H378v-0.9H378.9z M376.3,1067.6v-0.9h0.9v0.9H376.3z
		 M377.1,1079v0.9h-0.9v-0.9H377.1z M374.5,1067.6v-0.9h0.9v0.9H374.5z M375.4,1079v0.9h-0.9v-0.9H375.4z M350.1,1073.9
		c-1-0.4-1.4-0.6-1.4-1.2c0-0.7,0.6-1,1.5-1c0.4,0,0.6,0.1,0.9,0.1c0.1,0.1,0.4,0.1,0.4,0.4c0,0.1-0.1,0.3-0.3,0.3h-0.1
		c-0.3-0.1-0.6-0.3-1-0.3c-0.6,0-1,0.1-1,0.5s0.3,0.4,1,0.7c1,0.3,1.5,0.5,1.5,1.2c0,0.6-0.5,1.1-1.5,1.1c-0.5,0-1-0.1-1.4-0.4
		c-0.1-0.1-0.1-0.1-0.1-0.3s0.1-0.3,0.3-0.3c0.1,0,0.1,0,0.1,0.1c0.4,0.1,0.6,0.4,1.1,0.4c0.6,0,1-0.3,1-0.6
		C351.2,1074.3,350.8,1074.1,350.1,1073.9z M348.3,1067.6v-0.9h0.9v0.9H348.3z M350.1,1067.6v-0.9h0.9v0.9H350.1z M347.7,1075.3
		L347.7,1075.3c0,0.2-0.1,0.4-0.3,0.4c-0.2,0-0.1-0.1-0.3-0.1l-0.8-1.6h-1.2v1.4c0,0.1-0.1,0.3-0.3,0.3c-0.2,0-0.3-0.1-0.3-0.3v-3.3
		c0-0.1,0.1-0.3,0.3-0.3h1.6c0.9,0,1.3,0.4,1.3,1.1c0,0.5-0.3,0.9-0.8,1L347.7,1075.3z M347.5,1079v0.9h-0.9v-0.9H347.5z
		 M345.7,1079v0.9h-0.9v-0.9H345.7z M344.8,1067.6v-0.9h0.9v0.9H344.8z M346.6,1067.6v-0.9h0.9v0.9H346.6z M341.6,1075.6
		c-1.2,0-2-1-2-2c0-1,0.8-2,2-2s2,1,2,2C343.6,1074.7,342.8,1075.6,341.6,1075.6z M342.2,1079v0.9h-0.9v-0.9H342.2z M339.6,1067.6
		v-0.9h0.9v0.9H339.6z M341.4,1067.6v-0.9h0.9v0.9H341.4z M343.1,1079h0.9v0.9h-0.9V1079z M343.1,1067.6v-0.9h0.9v0.9H343.1z
		 M336.1,1072.3c-0.1,0-0.3-0.1-0.3-0.3c0-0.1,0.1-0.3,0.3-0.3h2.8c0.1,0,0.3,0.1,0.3,0.3c0,0.1-0.1,0.3-0.3,0.3h-1v3.1
		c0,0.1-0.1,0.3-0.3,0.3s-0.3-0.1-0.3-0.3v-3.1H336.1z M336.1,1067.6v-0.9h0.9v0.9H336.1z M337.9,1067.6v-0.9h0.9v0.9H337.9z
		 M333.7,1075.2c0.4,0,0.8-0.1,1-0.4c0.1-0.1,0.1-0.1,0.3-0.1c0.1,0,0.3,0.1,0.3,0.3c0,0.1,0,0.1-0.1,0.1c-0.3,0.4-0.9,0.6-1.5,0.6
		c-1.2,0-2-1-2-2c0-1,0.8-2,2-2c0.6,0,1.2,0.3,1.5,0.6c0.1,0.1,0.1,0.1,0.1,0.1c0,0.1-0.1,0.3-0.3,0.3c-0.1,0-0.1-0.1-0.3-0.1
		c-0.3-0.3-0.6-0.4-1-0.4c-1,0-1.5,0.7-1.5,1.5S332.8,1075.2,333.7,1075.2z M330.9,1071.7c0.1,0,0.3,0.1,0.3,0.3
		c0,0.1-0.1,0.3-0.3,0.3H329v1.1h1c0.1,0,0.3,0.1,0.3,0.3c0,0.1-0.1,0.3-0.3,0.3h-1v1.2h2c0.1,0,0.3,0.1,0.3,0.3
		c0,0.1-0.1,0.3-0.3,0.3h-2.2c-0.1,0-0.3-0.1-0.3-0.3v-3.4c0-0.1,0.1-0.3,0.3-0.3L330.9,1071.7L330.9,1071.7z M329.1,1067.6v-0.9
		h0.9v0.9H329.1z M330.9,1067.6v-0.9h0.9v0.9H330.9z M332.6,1067.6v-0.9h0.9v0.9H332.6z M334.4,1067.6v-0.9h0.9v0.9H334.4z
		 M326,1073.4c1,0.3,1.5,0.5,1.5,1.2c0,0.6-0.5,1.1-1.5,1.1c-0.5,0-1-0.1-1.4-0.4c-0.1-0.1-0.1-0.1-0.1-0.3s0.1-0.3,0.3-0.3
		c0.1,0,0.1,0,0.1,0.1c0.4,0.1,0.6,0.4,1.1,0.4c0.6,0,1-0.3,1-0.6c0-0.4-0.4-0.5-1-0.7c-1-0.4-1.4-0.6-1.4-1.2c0-0.7,0.6-1,1.5-1
		c0.4,0,0.6,0.1,0.9,0.1c0.1,0.1,0.4,0.1,0.4,0.4c0,0.1-0.1,0.3-0.3,0.3H327c-0.3-0.1-0.6-0.3-1-0.3c-0.6,0-1,0.1-1,0.5
		C325,1073,325.3,1073.1,326,1073.4z M323.9,1067.6v-0.9h0.9v0.9H323.9z M325.6,1067.6v-0.9h0.9v0.9H325.6z M319,1072
		c0-0.1,0.1-0.3,0.3-0.3h1.5c0.9,0,1.3,0.5,1.3,1.1s-0.4,1.1-1.3,1.1h-1.2v1.4c0,0.1-0.1,0.3-0.3,0.3c-0.2,0-0.3-0.1-0.3-0.3V1072
		L319,1072z M318.7,1067.6v-0.9h0.9v0.9H318.7z M320.4,1067.6v-0.9h0.9v0.9H320.4z M313.3,1071.7c0.1,0,0.3,0.1,0.3,0.3
		c0,0.1-0.1,0.3-0.3,0.3h-1.1v3.1c0,0.1-0.1,0.3-0.3,0.3c-0.2,0-0.3-0.1-0.3-0.3v-3.1h-1.1c-0.1,0-0.3-0.1-0.3-0.3
		c0-0.1,0.1-0.3,0.3-0.3H313.3z M311.7,1067.6v-0.9h0.9v0.9H311.7z M313.4,1067.6v-0.9h0.9v0.9H313.4z M314.3,1079v0.9h-0.9v-0.9
		H314.3z M312.5,1079v0.9h-0.9v-0.9H312.5z M310.8,1067.6h-0.9v-0.9h0.9V1067.6z M310.8,1079v0.9h-0.9v-0.9H310.8z M316.9,1115.7
		v33.2h-7v-33.2H316.9z M315.2,1079.9v-0.9h0.9v0.9H315.2z M315.9,1075.6c-1.2,0-2-1-2-2c0-1,0.8-2,2-2c1.2,0,2,1,2,2
		C317.9,1074.6,317.2,1075.6,315.9,1075.6z M315.2,1067.6v-0.9h0.9v0.9H315.2z M316.9,1067.6v-0.9h0.9v0.9H316.9z M289,1066.8v0.9
		h-0.9v-0.9H289z M287.2,1066.8v0.9h-0.9v-0.9H287.2z M285.5,1066.8v0.9h-0.9v-0.9H285.5z M283.7,1066.8v0.9h-0.9v-0.9H283.7z
		 M282,1066.8v0.9h-0.9v-0.9H282z M280.2,1066.8v0.9h-0.9v-0.9H280.2z M278.5,1066.8v0.9h-0.9v-0.9H278.5z M276.7,1066.8v0.9h-0.9
		v-0.9H276.7z M275,1066.8v0.9h-0.9v-0.9H275z M273.3,1066.8v0.9h-0.9v-0.9H273.3z M271.5,1066.8v0.9h-0.9v-0.9H271.5z
		 M269.8,1066.8v0.9h-0.9v-0.9H269.8z M268,1066.8v0.9h-0.9v-0.9H268z M266.3,1066.8v0.9h-0.9v-0.9H266.3z M264.5,1066.8v0.9h-0.9
		v-0.9H264.5z M262.8,1066.8v0.9h-0.9v-0.9H262.8z M261,1066.8v0.9h-0.9v-0.9H261z M259.3,1066.8v0.9h-0.9v-0.9H259.3z
		 M257.5,1066.8v0.9h-0.9v-0.9H257.5z M255.8,1066.8v0.9h-0.9v-0.9H255.8z M254,1066.8v0.9h-0.9v-0.9H254z M252.3,1066.8v0.9h-0.9
		v-0.9H252.3z M250.6,1066.8v0.9h-0.9v-0.9H250.6z M248.8,1066.8v0.9h-0.9v-0.9H248.8z M246.2,1067.6v-0.9h0.9v0.9H246.2z
		 M247.1,1079v0.9h-0.9v-0.9H247.1z M241,1067.6v-0.9h0.9v0.9H241z M241.8,1079v0.9h-0.9v-0.9H241.8z M239.2,1067.6v-0.9h0.9v0.9
		H239.2z M240.1,1079v0.9h-0.9v-0.9H240.1z M237.5,1067.6v-0.9h0.9v0.9H237.5z M238.3,1079v0.9h-0.9v-0.9H238.3z M235.7,1067.6v-0.9
		h0.9v0.9H235.7z M236.6,1079v0.9h-0.9v-0.9H236.6z M234,1067.6v-0.9h0.9v0.9H234z M234.8,1079v0.9h-0.9v-0.9H234.8z M232.2,1067.6
		v-0.9h0.9v0.9H232.2z M233.1,1079v0.9h-0.9v-0.9H233.1z M230.5,1067.6v-0.9h0.9v0.9H230.5z M231.4,1079v0.9h-0.9v-0.9H231.4z
		 M227.6,1075.6c-0.5,0-1-0.1-1.4-0.4c-0.1-0.1-0.1-0.1-0.1-0.3c0-0.1,0.1-0.3,0.3-0.3c0.1,0,0.1,0,0.1,0.1c0.4,0.1,0.6,0.4,1.1,0.4
		c0.6,0,1-0.3,1-0.6c0-0.4-0.4-0.5-1-0.7c-1-0.4-1.4-0.6-1.4-1.2c0-0.7,0.6-1,1.5-1c0.4,0,0.6,0.1,0.9,0.1c0.1,0.1,0.4,0.1,0.4,0.4
		c0,0.1-0.1,0.3-0.3,0.3h-0.1c-0.3-0.1-0.6-0.3-1-0.3c-0.6,0-1,0.1-1,0.5s0.3,0.4,1,0.7c1,0.3,1.5,0.5,1.5,1.2
		S228.5,1075.6,227.6,1075.6z M227.9,1079v0.9H227v-0.9H227.9z M224,1072.3v3.1c0,0.1-0.1,0.3-0.3,0.3c-0.2,0-0.3-0.1-0.3-0.3v-3.1
		h-1.1c-0.1,0-0.3-0.1-0.3-0.3c0-0.1,0.1-0.3,0.3-0.3h2.8c0.1,0,0.3,0.1,0.3,0.3c0,0.1-0.1,0.3-0.3,0.3H224z M224.4,1079v0.9h-0.9
		v-0.9H224.4z M222.6,1079v0.9h-0.9v-0.9H222.6z M221.7,1067.6v-0.9h0.9v0.9H221.7z M223.5,1067.6v-0.9h0.9v0.9H223.5z
		 M225.2,1067.6v-0.9h0.9v0.9H225.2z M225.2,1079h0.9v0.9h-0.9V1079z M227,1067.6v-0.9h0.9v0.9H227z M228.7,1079h0.9v0.9h-0.9V1079z
		 M228.7,1067.6v-0.9h0.9v0.9H228.7z M220.8,1075.6l-2.2-2.9v2.7c0,0.1-0.1,0.3-0.3,0.3c-0.2,0-0.3-0.1-0.3-0.3v-3.5
		c0-0.1,0.1-0.3,0.3-0.3c0.1,0,0.1,0.1,0.1,0.1l2.2,2.9v-2.7c0-0.1,0.1-0.3,0.3-0.3s0.3,0.1,0.3,0.3v3.5c0,0.1-0.1,0.3-0.3,0.3
		C221,1075.6,220.9,1075.6,220.8,1075.6z M220.9,1079v0.9H220v-0.9H220.9z M219.1,1079v0.9h-0.9v-0.9H219.1z M218.3,1067.6v-0.9h0.9
		v0.9H218.3z M220,1067.6v-0.9h0.9v0.9H220z M214.6,1075.6c-0.1,0-0.3-0.1-0.3-0.3v-3.4c0-0.1,0.1-0.3,0.3-0.3h2.2
		c0.1,0,0.3,0.1,0.3,0.3c0,0.1-0.1,0.3-0.3,0.3h-1.9v1.1h1c0.1,0,0.3,0.1,0.3,0.3c0,0.1-0.1,0.3-0.3,0.3h-1v1.2h2
		c0.1,0,0.3,0.1,0.3,0.3c0,0.1-0.1,0.3-0.3,0.3L214.6,1075.6L214.6,1075.6z M215.6,1079v0.9h-0.9v-0.9H215.6z M214.8,1067.6v-0.9
		h0.9v0.9H214.8z M216.5,1079h0.9v0.9h-0.9V1079z M216.5,1067.6v-0.9h0.9v0.9H216.5z M213,1079h0.9v0.9H213V1079z M212.8,1075.6
		c-0.1,0-0.3-0.1-0.3-0.3v-3.4c0-0.1,0.1-0.3,0.3-0.3c0.2,0,0.3,0.1,0.3,0.3v3.4C213.1,1075.6,213,1075.6,212.8,1075.6z M213,1067.6
		v-0.9h0.9v0.9H213z M209.3,1075.6c-0.1,0-0.3-0.1-0.3-0.3v-3.4c0-0.1,0.1-0.3,0.3-0.3c0.2,0,0.3,0.1,0.3,0.3v3.1h1.9
		c0.1,0,0.3,0.1,0.3,0.3c0,0.1-0.1,0.3-0.3,0.3H209.3L209.3,1075.6z M210.4,1079v0.9h-0.9v-0.9H210.4z M209.5,1067.6v-0.9h0.9v0.9
		H209.5z M211.3,1079h0.9v0.9h-0.9V1079z M211.3,1067.6v-0.9h0.9v0.9H211.3z M206.4,1075.6c-1.2,0-2-1-2-2c0-1,0.8-2,2-2
		c0.6,0,1.2,0.3,1.5,0.6c0.1,0.1,0.1,0.1,0.1,0.1c0,0.1-0.1,0.3-0.3,0.3c-0.1,0-0.1-0.1-0.3-0.1c-0.3-0.3-0.6-0.4-1-0.4
		c-1,0-1.5,0.7-1.5,1.5s0.5,1.5,1.5,1.5c0.4,0,0.8-0.1,1-0.4c0.1-0.1,0.1-0.1,0.3-0.1c0.1,0,0.3,0.1,0.3,0.3c0,0.1,0,0.1-0.1,0.1
		C207.6,1075.4,207,1075.6,206.4,1075.6z M206.9,1079v0.9H206v-0.9H206.9z M205.2,1079v0.9h-0.9v-0.9H205.2z M204.3,1067.6v-0.9h0.9
		v0.9H204.3z M206,1067.6v-0.9h0.9v0.9H206z M207.8,1079h0.9v0.9h-0.9V1079z M207.8,1067.6v-0.9h0.9v0.9H207.8z M202.5,1067.6v-0.9
		h0.9v0.9H202.5z M203.4,1079v0.9h-0.9v-0.9H203.4z M200.4,1075.6c-1.2,0-2-0.9-2-2c0-1.2,0.9-2,2-2c0.5,0,1,0.1,1.3,0.5
		c0.1,0.1,0.1,0.1,0.1,0.1c0,0.1-0.1,0.3-0.3,0.3c-0.1,0-0.1,0-0.1-0.1c-0.4-0.3-0.6-0.4-1-0.4c-0.9,0-1.4,0.7-1.4,1.5
		s0.5,1.6,1.4,1.6c0.4,0,0.9-0.1,1.1-0.4v-0.7h-1c-0.1,0-0.3-0.1-0.3-0.3c0-0.1,0.1-0.3,0.3-0.3h1.2c0.1,0,0.3,0.1,0.3,0.3v1
		c0,0.1,0,0.1-0.1,0.1C201.7,1075.5,201,1075.6,200.4,1075.6z M201.7,1079v0.9h-0.9v-0.9H201.7z M199.9,1079v0.9H199v-0.9H199.9z
		 M199,1067.6v-0.9h0.9v0.9H199z M200.8,1067.6v-0.9h0.9v0.9H200.8z M194.7,1072.7v2.7c0,0.1-0.1,0.3-0.3,0.3
		c-0.2,0-0.3-0.1-0.3-0.3v-3.5c0-0.1,0.1-0.3,0.3-0.3c0.1,0,0.1,0.1,0.1,0.1l2.2,2.9v-2.7c0-0.1,0.1-0.3,0.3-0.3
		c0.2,0,0.3,0.1,0.3,0.3v3.5c0,0.1-0.1,0.3-0.3,0.3c-0.1,0-0.1,0-0.1-0.1L194.7,1072.7z M196.4,1079v0.9h-0.9v-0.9H196.4z
		 M194.7,1079v0.9h-0.9v-0.9H194.7z M193.8,1067.6v-0.9h0.9v0.9H193.8z M195.6,1067.6v-0.9h0.9v0.9H195.6z M197.3,1079h0.9v0.9h-0.9
		V1079z M197.3,1067.6v-0.9h0.9v0.9H197.3z M192.9,1079v0.9H192v-0.9H192.9z M192.3,1075.4v-3.4c0-0.1,0.1-0.3,0.3-0.3
		c0.2,0,0.3,0.1,0.3,0.3v3.4c0,0.1-0.1,0.3-0.3,0.3C192.5,1075.6,192.3,1075.6,192.3,1075.4z M192.1,1067.6v-0.9h0.9v0.9H192.1z
		 M188.4,1072.7v2.7c0,0.1-0.1,0.3-0.3,0.3c-0.2,0-0.3-0.1-0.3-0.3v-3.5c0-0.1,0.1-0.3,0.3-0.3c0.1,0,0.1,0.1,0.1,0.1l2.2,2.9v-2.7
		c0-0.1,0.1-0.3,0.3-0.3c0.2,0,0.3,0.1,0.3,0.3v3.5c0,0.1-0.1,0.3-0.3,0.3c-0.1,0-0.1,0-0.1-0.1L188.4,1072.7z M189.4,1079v0.9h-0.9
		v-0.9H189.4z M188.6,1067.6v-0.9h0.9v0.9H188.6z M190.3,1079h0.9v0.9h-0.9V1079L190.3,1079z M190.3,1067.6v-0.9h0.9v0.9H190.3z
		 M186.8,1067.6v-0.9h0.9v0.9H186.8z M187.7,1079v0.9h-0.9v-0.9H187.7z M186.6,1075.3L186.6,1075.3c0,0.2-0.1,0.4-0.3,0.4
		s-0.1-0.1-0.3-0.1l-0.8-1.6H184v1.4c0,0.1-0.1,0.3-0.3,0.3c-0.2,0-0.3-0.1-0.3-0.3v-3.3c0-0.1,0.1-0.3,0.3-0.3h1.6
		c0.9,0,1.3,0.4,1.3,1.1c0,0.5-0.3,0.9-0.8,1L186.6,1075.3z M186,1079v0.9h-0.9v-0.9H186z M184.2,1079v0.9h-0.9v-0.9H184.2z
		 M183.3,1067.6v-0.9h0.9v0.9H183.3z M185.1,1067.6v-0.9h0.9v0.9H185.1z M180.7,1075.6c-1,0-1.6-0.6-1.6-1.6v-2.1
		c0-0.1,0.1-0.3,0.3-0.3c0.2,0,0.3,0.1,0.3,0.3v2.2c0,0.6,0.4,1,1.1,1s1.1-0.4,1.1-1v-2.2c0-0.1,0.1-0.3,0.3-0.3s0.3,0.1,0.3,0.3
		v2.1C182.3,1075,181.7,1075.6,180.7,1075.6z M180.7,1079v0.9h-0.9v-0.9H180.7z M179.8,1067.6v-0.9h0.9v0.9H179.8z M181.6,1079h0.9
		v0.9h-0.9V1079z M181.6,1067.6v-0.9h0.9v0.9H181.6z M176.9,1072.3v3.1c0,0.1-0.1,0.3-0.3,0.3c-0.2,0-0.3-0.1-0.3-0.3v-3.1h-1.1
		c-0.1,0-0.3-0.1-0.3-0.3c0-0.1,0.1-0.3,0.3-0.3h2.8c0.1,0,0.3,0.1,0.3,0.3c0,0.1-0.1,0.3-0.3,0.3H176.9z M177.2,1079v0.9h-0.9v-0.9
		H177.2z M175.5,1079v0.9h-0.9v-0.9H175.5z M174.6,1067.6v-0.9h0.9v0.9H174.6z M176.3,1067.6v-0.9h0.9v0.9H176.3z M178.1,1079h0.9
		v0.9h-0.9V1079z M178.1,1067.6v-0.9h0.9v0.9H178.1z M171.8,1075.6c-0.1,0-0.3-0.1-0.3-0.3v-3.4c0-0.1,0.1-0.3,0.3-0.3h2.2
		c0.1,0,0.3,0.1,0.3,0.3c0,0.1-0.1,0.3-0.3,0.3h-1.9v1.1h1c0.1,0,0.3,0.1,0.3,0.3c0,0.1-0.1,0.3-0.3,0.3h-1v1.2h2
		c0.1,0,0.3,0.1,0.3,0.3c0,0.1-0.1,0.3-0.3,0.3L171.8,1075.6L171.8,1075.6L171.8,1075.6z M173.7,1079v0.9h-0.9v-0.9H173.7z
		 M172,1079v0.9h-0.9v-0.9H172z M171.1,1067.6v-0.9h0.9v0.9H171.1z M172.9,1067.6v-0.9h0.9v0.9H172.9z M170.3,1075.3L170.3,1075.3
		c0,0.2-0.1,0.4-0.3,0.4c-0.2,0-0.1-0.1-0.3-0.1l-0.8-1.6h-1.2v1.4c0,0.1-0.1,0.3-0.3,0.3c-0.2,0-0.3-0.1-0.3-0.3v-3.3
		c0-0.1,0.1-0.3,0.3-0.3h1.6c0.9,0,1.3,0.4,1.3,1.1c0,0.5-0.3,0.9-0.8,1L170.3,1075.3z M170.2,1079v0.9h-0.9v-0.9H170.2z
		 M168.5,1079v0.9h-0.9v-0.9H168.5z M167.6,1067.6v-0.9h0.9v0.9H167.6z M169.4,1067.6v-0.9h0.9v0.9H169.4z M165.9,1067.6v-0.9h0.9
		v0.9H165.9z M166.7,1079v0.9h-0.9v-0.9H166.7z M75.1,1067.6v-0.9H76v0.9H75.1z M76,1079v0.9h-0.9v-0.9H76z M75.3,1047.9v4.4
		c0,0.3-0.3,0.5-0.5,0.5c-0.3,0-0.5-0.3-0.5-0.5v-4.4h-1.5c-0.3,0-0.5-0.3-0.5-0.5c0-0.3,0.1-0.5,0.5-0.5h4c0.3,0,0.5,0.3,0.5,0.5
		c0,0.3-0.1,0.5-0.5,0.5H75.3z M73.3,1067.6v-0.9h0.9v0.9H73.3z M74.2,1079v0.9h-0.9v-0.9H74.2z M71.6,1067.6v-0.9h0.9v0.9H71.6z
		 M72.5,1079v0.9h-0.9v-0.9H72.5z M72,1052.9c-0.3,0-0.4-0.1-0.4-0.3l-0.5-1h-2.6l-0.5,1c-0.1,0.1-0.1,0.3-0.4,0.3
		c-0.4,0-0.5-0.3-0.5-0.5c0-0.1,0-0.1,0.1-0.1l2.3-5c0.1-0.1,0.3-0.3,0.4-0.3c0.3,0,0.4,0.1,0.4,0.3l2.3,5c0,0.1,0.1,0.1,0.1,0.1
		C72.6,1052.6,72.3,1052.9,72,1052.9z M69.8,1067.6v-0.9h0.9v0.9H69.8z M70.7,1079v0.9h-0.9v-0.9H70.7z M66.9,1075.6
		c-1.2,0-2-0.9-2-2c0-1.2,0.9-2,2-2c0.5,0,1,0.1,1.3,0.5c0.1,0.1,0.1,0.1,0.1,0.1c0,0.1-0.1,0.3-0.3,0.3c-0.1,0-0.1,0-0.1-0.1
		c-0.4-0.3-0.6-0.4-1-0.4c-0.9,0-1.4,0.7-1.4,1.5s0.5,1.6,1.4,1.6c0.4,0,0.9-0.1,1.1-0.4v-0.7h-1c-0.1,0-0.3-0.1-0.3-0.3
		c0-0.1,0.1-0.3,0.3-0.3h1.2c0.1,0,0.3,0.1,0.3,0.3v1c0,0.1,0,0.1-0.1,0.1C68.1,1075.5,67.6,1075.6,66.9,1075.6z M67.2,1079v0.9
		h-0.9v-0.9H67.2z M62.7,1047.9c-0.3,0-0.5-0.3-0.5-0.5c0-0.3,0.1-0.5,0.5-0.5h4c0.3,0,0.5,0.3,0.5,0.5c0,0.3-0.1,0.5-0.5,0.5h-1.5
		v4.4c0,0.3-0.3,0.5-0.5,0.5c-0.3,0-0.5-0.3-0.5-0.5v-4.4H62.7z M63.6,1075.6C63.5,1075.6,63.5,1075.6,63.6,1075.6l-2.5-3v2.7
		c0,0.1-0.1,0.3-0.3,0.3s-0.3-0.1-0.3-0.3v-3.5c0-0.1,0.1-0.3,0.3-0.3c0.1,0,0.1,0.1,0.1,0.1l2.3,2.9v-2.7c0-0.1,0.1-0.3,0.3-0.3
		c0.2,0,0.3,0.1,0.3,0.3v3.5C63.9,1075.6,63.8,1075.6,63.6,1075.6z M63.7,1079v0.9h-0.9v-0.9H63.7z M62,1079v0.9h-0.9v-0.9H62z
		 M59.4,1079h0.9v0.9h-0.9V1079z M59.1,1075.6c-0.1,0-0.3-0.1-0.3-0.3v-3.4c0-0.1,0.1-0.3,0.3-0.3s0.3,0.1,0.3,0.3v3.4
		C59.4,1075.6,59.2,1075.6,59.1,1075.6z M59.4,1067.6v-0.9h0.9v0.9H59.4z M59.2,1052.9c-0.7,0-1.5-0.1-2-0.6
		c-0.1-0.1-0.3-0.4-0.3-0.5c0-0.3,0.1-0.4,0.4-0.4c0.1,0,0.1,0,0.3,0.1c0.4,0.3,0.8,0.5,1.6,0.5c0.9,0,1.1-0.4,1.1-0.7
		c0-0.4-0.4-0.6-1.4-1c-1.6-0.4-2-1-2-1.9c0-1,0.9-1.6,2.3-1.6c0.4,0,0.7,0.1,1.1,0.1c0.4,0.1,0.9,0.4,0.9,0.7
		c0,0.3-0.1,0.4-0.4,0.4c-0.1,0-0.1,0-0.1,0c-0.4-0.1-0.8-0.4-1.4-0.4c-0.8,0-1.2,0.1-1.2,0.7c0,0.4,0.4,0.6,1.4,0.9
		c1.2,0.4,2,0.7,2,1.9C61.5,1052.2,60.7,1052.9,59.2,1052.9z M54.9,1072.3c-0.1,0-0.3-0.1-0.3-0.3c0-0.1,0.1-0.3,0.3-0.3h2.8
		c0.1,0,0.3,0.1,0.3,0.3c0,0.1-0.1,0.3-0.3,0.3h-1.2v3.1c0,0.1-0.1,0.3-0.3,0.3c-0.2,0-0.3-0.1-0.3-0.3v-3.1H54.9z M54.1,1067.6
		v-0.9H55v0.9H54.1z M55.9,1067.6v-0.9h0.9v0.9H55.9z M57.6,1079h0.9v0.9h-0.9V1079z M57.6,1067.6v-0.9h0.9v0.9H57.6z M62,1066.8
		v0.9h-0.9v-0.9H62z M62.9,1067.6v-0.9h0.9v0.9H62.9z M67.2,1066.8v0.9h-0.9v-0.9H67.2z M65.5,1066.8v0.9h-0.9v-0.9H65.5z
		 M64.6,1079h0.9v0.9h-0.9V1079z M68.1,1079H69v0.9h-0.9V1079z M68.1,1067.6v-0.9H69v0.9H68.1z M76.8,1079h0.9v0.9h-0.9V1079z
		 M76.8,1067.6v-0.9h0.9v0.9H76.8z M51.8,1047.9v4.4c0,0.3-0.3,0.5-0.5,0.5c-0.2,0-0.5-0.3-0.5-0.5v-4.4h-1.5
		c-0.3,0-0.5-0.3-0.5-0.5c0-0.3,0.1-0.5,0.5-0.5h4c0.3,0,0.5,0.3,0.5,0.5c0,0.3-0.1,0.5-0.5,0.5H51.8z M53.3,1066.8v0.9h-0.9v-0.9
		H53.3z M51.5,1066.8v0.9h-0.9v-0.9H51.5z M51.5,1079v0.9h-0.9v-0.9H51.5z M49.8,1066.8v0.9h-0.9v-0.9H49.8z M42.8,1066.8v0.9h-0.9
		v-0.9H42.8z M37.7,1072.7v2.7c0,0.1-0.1,0.3-0.3,0.3c-0.2,0-0.3-0.1-0.3-0.3v-3.5c0-0.1,0.1-0.3,0.3-0.3c0.1,0,0.1,0.1,0.1,0.1
		l2.2,2.9v-2.7c0-0.1,0.1-0.3,0.3-0.3s0.3,0.1,0.3,0.3v3.5c0,0.1-0.1,0.3-0.3,0.3c-0.1,0-0.1,0-0.1-0.1L37.7,1072.7z M39.3,1079v0.9
		h-0.9v-0.9H39.3z M37.5,1079v0.9h-0.9v-0.9H37.5z M36.7,1067.6v-0.9h0.9v0.9H36.7z M38.4,1067.6v-0.9h0.9v0.9H38.4z M40.2,1079h0.9
		v0.9h-0.9V1079z M40.2,1067.6v-0.9h0.9v0.9H40.2z M38.2,1052.8c-0.3,0-0.5-0.3-0.5-0.5v-4.7c0-0.3,0.3-0.5,0.5-0.5h3.1
		c0.3,0,0.5,0.1,0.5,0.5s-0.3,0.5-0.5,0.5h-2.6v1.4h1.4c0.3,0,0.5,0.1,0.5,0.5s-0.3,0.5-0.5,0.5h-1.4v1.5h2.7c0.3,0,0.5,0.1,0.5,0.5
		c0,0.4-0.3,0.3-0.5,0.3L38.2,1052.8L38.2,1052.8z M33.8,1075.6c-0.1,0-0.3-0.1-0.3-0.3v-3.4c0-0.1,0.1-0.3,0.3-0.3H36
		c0.1,0,0.3,0.1,0.3,0.3c0,0.1-0.1,0.3-0.3,0.3h-2v1.1h1c0.1,0,0.3,0.1,0.3,0.3c0,0.1-0.1,0.3-0.3,0.3h-1v1.2h2
		c0.1,0,0.3,0.1,0.3,0.3c0,0.1-0.1,0.3-0.3,0.3L33.8,1075.6C33.8,1075.7,33.8,1075.6,33.8,1075.6z M35.8,1079v0.9h-0.9v-0.9H35.8z
		 M32.3,1079v0.9h-0.9v-0.9H32.3z M31.7,1075.4v-3.4c0-0.1,0.1-0.3,0.3-0.3c0.2,0,0.3,0.1,0.3,0.3v3.4c0,0.1-0.1,0.3-0.3,0.3
		C31.9,1075.6,31.7,1075.6,31.7,1075.4z M31.4,1067.6v-0.9h0.9v0.9H31.4z M30.4,1052.8c-0.3,0-0.5-0.3-0.5-0.5v-4.8
		c0-0.3,0.3-0.5,0.5-0.5c0.2,0,0.5,0.3,0.5,0.5v4.4h2.5c0.3,0,0.5,0.1,0.5,0.5c0,0.4-0.3,0.4-0.5,0.4H30.4L30.4,1052.8z
		 M28.4,1075.6c-0.1,0-0.3-0.1-0.3-0.3v-3.4c0-0.1,0.1-0.3,0.3-0.3c0.2,0,0.3,0.1,0.3,0.3v3.1h1.9c0.1,0,0.3,0.1,0.3,0.3
		c0,0.1-0.1,0.3-0.3,0.3H28.4L28.4,1075.6z M30.6,1079v0.9h-0.9v-0.9H30.6z M25.7,1075.2c0.4,0,0.8-0.1,1-0.4
		c0.1-0.1,0.1-0.1,0.3-0.1c0.2,0,0.3,0.1,0.3,0.3c0,0.1,0,0.1-0.1,0.1c-0.3,0.4-0.9,0.6-1.5,0.6c-1.2,0-2-1-2-2c0-1,0.8-2,2-2
		c0.6,0,1.2,0.3,1.5,0.6c0.1,0.1,0.1,0.1,0.1,0.1c0,0.1-0.1,0.3-0.3,0.3c-0.1,0-0.1-0.1-0.3-0.1c-0.3-0.3-0.6-0.4-1-0.4
		c-1,0-1.5,0.7-1.5,1.5S24.7,1075.2,25.7,1075.2z M27.1,1079v0.9h-0.9v-0.9H27.1z M25.3,1079v0.9h-0.9v-0.9H25.3z M24.4,1067.6v-0.9
		h0.9v0.9H24.4z M26.2,1067.6v-0.9h0.9v0.9H26.2z M26.6,1052.9c-1.7,0-3-1.2-3-3c0-1.8,1.2-3,3-3c0.7,0,1.5,0.3,1.9,0.7
		c0.1,0.1,0.1,0.1,0.1,0.4s-0.1,0.5-0.4,0.5c-0.1,0-0.3,0-0.4-0.1c-0.4-0.3-0.7-0.4-1.3-0.4c-1.1,0-1.9,0.9-1.9,2c0,1.1,0.8,2,1.9,2
		c0.6,0,1-0.3,1.3-0.4c0.1-0.1,0.3-0.1,0.4-0.1c0.3,0,0.4,0.3,0.4,0.5c0,0.1-0.1,0.3-0.1,0.4C28.1,1052.7,27.3,1052.9,26.6,1052.9z
		 M28.8,1066.8v0.9h-0.9v-0.9H28.8z M27.9,1079h0.9v0.9h-0.9V1079z M29.7,1067.6v-0.9h0.9v0.9H29.7z M34,1066.8v0.9h-0.9v-0.9H34z
		 M33.2,1079h0.9v0.9h-0.9V1079z M35.8,1066.8v0.9h-0.9v-0.9H35.8z M35,1052.3v-4.9c0-0.3,0.3-0.5,0.5-0.5c0.3,0,0.5,0.3,0.5,0.5
		v4.9c0,0.3-0.3,0.5-0.5,0.5C35.3,1052.8,35,1052.6,35,1052.3z M20.1,1185.5h-0.9v-0.9h0.9V1185.5z M20.1,1079.9h-0.9v-0.9h0.9
		V1079.9z M20.1,1067.6h-0.9v-0.9h0.9V1067.6z M21.8,1185.5h-0.9v-0.9h0.9V1185.5z M21.8,1079.9h-0.9v-0.9h0.9V1079.9z M21.8,1067.6
		h-0.9v-0.9h0.9V1067.6z M23.6,1185.5h-0.9v-0.9h0.9V1185.5z M23.6,1079.9h-0.9v-0.9h0.9V1079.9z M23.6,1067.6h-0.9v-0.9h0.9V1067.6
		z M25.3,1185.5h-0.9v-0.9h0.9V1185.5z M27.1,1185.5h-0.9v-0.9h0.9V1185.5z M28.8,1185.5h-0.9v-0.9h0.9V1185.5z M30.6,1185.5h-0.9
		v-0.9h0.9V1185.5z M32.3,1185.5h-0.9v-0.9h0.9V1185.5z M24.7,1139.5c0-1.6,1-2.5,2.6-2.5c1.2,0,2.2,1,2.2,2.2c0,1-0.5,2-1.6,2.2
		c1,1,3.1,1.3,4.4,1.3c6.3,0,7.7-5,7.7-10.3c-2.2,2.2-4.6,2.9-7,2.9c-5.2,0-9.5-2.5-9.5-8c0-5.5,4.2-8,9.5-8
		c8.2,0,10.9,5.2,10.9,11.6c0,7.6-3.3,13.9-11.7,13.9C29.3,1144.7,24.7,1143.1,24.7,1139.5z M41.9,1079.9v-0.9h0.9v0.9H41.9z
		 M34,1185.5h-0.9v-0.9H34V1185.5z M35.8,1185.5h-0.9v-0.9h0.9V1185.5z M37.5,1185.5h-0.9v-0.9h0.9V1185.5z M39.3,1185.5h-0.9v-0.9
		h0.9V1185.5z M41,1185.5h-0.8v-0.9h0.9L41,1185.5L41,1185.5z M42.8,1185.5h-0.9v-0.9h0.9V1185.5z M44.5,1185.5h-0.9v-0.9h0.9
		V1185.5z M44.5,1079.9h-0.9v-0.9h0.9V1079.9z M44.4,1072.3h-1.1v3.1c0,0.1-0.1,0.3-0.3,0.3c-0.2,0-0.3-0.1-0.3-0.3v-3.1h-1.1
		c-0.1,0-0.3-0.1-0.3-0.3c0-0.1,0.1-0.3,0.3-0.3h2.8c0.1,0,0.3,0.1,0.3,0.3C44.6,1072.1,44.5,1072.3,44.4,1072.3z M43.7,1067.6v-0.9
		h0.9v0.9H43.7z M46.3,1185.5h-0.9v-0.9h0.9V1185.5z M46.3,1079.9h-0.9v-0.9h0.9V1079.9z M46.3,1067.6h-0.9v-0.9h0.9V1067.6z
		 M43.9,1048.8v3.5c0,0.3-0.3,0.5-0.5,0.5s-0.5-0.3-0.5-0.5v-5c0-0.3,0.1-0.5,0.5-0.5c0.1,0,0.3,0.1,0.4,0.1l3,3.9v-3.5
		c0-0.3,0.1-0.5,0.5-0.5c0.4,0,0.5,0.3,0.5,0.5v5c0,0.3-0.1,0.5-0.5,0.5c-0.1,0-0.3-0.1-0.4-0.1L43.9,1048.8z M48,1066.8v0.9h-0.9
		v-0.9H48z M47,1075.4v-3.4c0-0.1,0.1-0.3,0.3-0.3h1.6c0.9,0,1.3,0.4,1.3,1.1c0,0.5-0.3,0.9-0.8,1l0.7,1.3v0.1
		c0,0.1-0.1,0.3-0.3,0.3c-0.2,0-0.1-0.1-0.3-0.1l-0.8-1.6h-1.2v1.4c0,0.1-0.1,0.3-0.3,0.3C47.1,1075.6,47,1075.6,47,1075.4z
		 M49.8,1079v0.9h-0.9v-0.9H49.8z M48,1185.5h-0.9v-0.9H48V1185.5z M48,1079.9h-0.9v-0.9H48V1079.9z M49.8,1185.5h-0.9v-0.9h0.9
		V1185.5z M51.5,1185.5h-0.9v-0.9h0.9V1185.5z M50.3,1144.7c-1.3,0-2.3-1-2.3-2.2c0-1.3,1-2.2,2.3-2.2c1.3,0,2.3,1,2.3,2.2
		C52.5,1143.7,51.6,1144.7,50.3,1144.7z M53.3,1185.5h-0.9v-0.9h0.9V1185.5z M53.3,1079.9h-0.9v-0.9h0.9V1079.9z M53.7,1074.6h-1.9
		l-0.4,0.9c0,0.1-0.1,0.1-0.3,0.1c-0.2,0-0.3-0.1-0.3-0.3v-0.1l1.6-3.5c0.1-0.1,0.1-0.1,0.3-0.1c0.1,0,0.1,0.1,0.3,0.1l1.6,3.5v0.1
		c0,0.1-0.1,0.3-0.3,0.3s-0.1-0.1-0.3-0.1L53.7,1074.6z M55,1185.5h-0.9v-0.9H55V1185.5z M55,1079.9h-0.9v-0.9H55V1079.9z
		 M56.7,1185.5h-0.9v-0.9h0.9V1185.5z M56.7,1079.9h-0.9v-0.9h0.9V1079.9z M58.5,1185.5h-0.9v-0.9h0.9V1185.5z M60.2,1185.5h-0.9
		v-0.9h0.9V1185.5z M62,1185.5h-0.9v-0.9H62V1185.5z M63.7,1185.5h-0.9v-0.9h0.9V1185.5z M65.5,1185.5h-0.9v-0.9h0.9V1185.5z
		 M67.2,1185.5h-0.9v-0.9h0.9V1185.5z M69,1185.5h-0.9v-0.9H69V1185.5z M70.7,1185.5h-0.9v-0.9h0.9V1185.5z M72.5,1185.5h-0.9v-0.9
		h0.9V1185.5z M74.2,1185.5h-0.9v-0.9h0.9V1185.5z M76,1185.5h-0.9v-0.9H76V1185.5z M77.7,1185.5h-0.9v-0.9h0.9V1185.5z
		 M71.8,1144.7c-1.6,0-3.5-0.8-5.1-1.6c-1.6-0.8-3.2-1.6-4.5-1.6c-1.5,0-2.2,1.5-2.2,2.9h-2c0-14.5,15.3-8.6,15.3-17.9
		c0-3.4-2.9-5.2-6-5.2c-2.5,0-5.6,0.8-6.4,3.6c1.7,0,2.8,0.6,2.8,2.5c0,1.4-1,2.2-2.5,2.2c-2,0-2.8-1.5-2.8-3.3c0-5.4,5.5-7,9.9-7
		c4.7,0,8.9,2.6,8.9,7.7c0,9.7-14.4,6.2-16.4,13c0.7-0.4,1.5-0.8,2.3-0.8c1,0,2.6,0.5,4.5,1c1.9,0.5,3.7,1,5.1,1
		c2.9,0,3.3-2.8,3.3-5.1h1.9C78.2,1140.6,77.2,1144.7,71.8,1144.7z M79.4,1185.5h-0.9v-0.9h0.9V1185.5z M79.4,1079.9h-0.9v-0.9h0.9
		V1079.9z M79.4,1067.6h-0.9v-0.9h0.9V1067.6z M81.2,1185.5h-0.9v-0.9h0.9V1185.5z M81.2,1079.9h-0.9v-0.9h0.9V1079.9z M81.2,1067.6
		h-0.9v-0.9h0.9V1067.6z M80.3,1052.9c-0.7,0-1.5-0.1-2-0.6c-0.1-0.1-0.3-0.4-0.3-0.5c0-0.3,0.1-0.4,0.4-0.4c0.1,0,0.1,0,0.3,0.1
		c0.4,0.3,0.8,0.5,1.6,0.5c0.9,0,1.1-0.4,1.1-0.7c0-0.4-0.4-0.6-1.4-1c-1.6-0.4-2-1-2-1.9c0-1,0.9-1.6,2.3-1.6
		c0.4,0,0.7,0.1,1.1,0.1c0.4,0.1,0.9,0.4,0.9,0.7c0,0.3-0.1,0.4-0.4,0.4c-0.1,0-0.1,0-0.1,0c-0.4-0.1-0.8-0.4-1.4-0.4
		c-0.8,0-1.2,0.1-1.2,0.7c0,0.4,0.4,0.6,1.4,0.9c1.2,0.4,2,0.7,2,1.9C82.6,1052.2,81.8,1052.9,80.3,1052.9z M82.9,1185.5H82v-0.9
		h0.9V1185.5z M82.9,1079.9H82v-0.9h0.9V1079.9z M82.9,1067.6H82v-0.9h0.9V1067.6z M84.7,1185.5h-0.9v-0.9h0.9V1185.5z M84.7,1079.9
		h-0.9v-0.9h0.9V1079.9z M84.7,1067.6h-0.9v-0.9h0.9V1067.6z M86.4,1185.5h-0.8v-0.9h0.9L86.4,1185.5L86.4,1185.5z M86.4,1079.9
		h-0.8v-0.9h0.9L86.4,1079.9L86.4,1079.9z M86.4,1067.6h-0.8v-0.9h0.9L86.4,1067.6L86.4,1067.6z M88.2,1185.5h-0.9v-0.9h0.9V1185.5z
		 M88.2,1079.9h-0.9v-0.9h0.9V1079.9z M88.2,1067.6h-0.9v-0.9h0.9V1067.6z M89.9,1185.5H89v-0.9h0.9V1185.5z M89.9,1079.9H89v-0.9
		h0.9V1079.9z M89.9,1067.6H89v-0.9h0.9V1067.6z M91.7,1185.5h-0.9v-0.9h0.9V1185.5z M91.7,1079.9h-0.9v-0.9h0.9V1079.9z
		 M91.7,1067.6h-0.9v-0.9h0.9V1067.6z M93.4,1185.5h-0.9v-0.9h0.9V1185.5z M93.4,1079.9h-0.9v-0.9h0.9V1079.9z M93.4,1067.6h-0.9
		v-0.9h0.9V1067.6z M95.2,1185.5h-0.9v-0.9h0.9V1185.5z M95.2,1079.9h-0.9v-0.9h0.9V1079.9z M95.2,1067.6h-0.9v-0.9h0.9V1067.6z
		 M96.9,1185.5H96v-0.9h0.9V1185.5z M96.9,1079.9H96v-0.9h0.9V1079.9z M96.9,1067.6H96v-0.9h0.9V1067.6z M98.7,1185.5h-0.9v-0.9h0.9
		V1185.5z M98.7,1079.9h-0.9v-0.9h0.9V1079.9z M98.7,1067.6h-0.9v-0.9h0.9V1067.6z M100.4,1185.5h-0.9v-0.9h0.9V1185.5z
		 M100.4,1079.9h-0.9v-0.9h0.9V1079.9z M100.4,1067.6h-0.9v-0.9h0.9V1067.6z M102.1,1185.5h-0.9v-0.9h0.9V1185.5z M102.1,1079.9
		h-0.9v-0.9h0.9V1079.9z M102.1,1067.6h-0.9v-0.9h0.9V1067.6z M103.9,1185.5H103v-0.9h0.9V1185.5z M103.9,1079.9H103v-0.9h0.9
		V1079.9z M103.9,1067.6H103v-0.9h0.9V1067.6z M105.6,1185.5h-0.9v-0.9h0.9V1185.5z M105.6,1079.9h-0.9v-0.9h0.9V1079.9z
		 M105.6,1067.6h-0.9v-0.9h0.9V1067.6z M107.4,1185.5h-0.9v-0.9h0.9V1185.5z M107.4,1079.9h-0.9v-0.9h0.9V1079.9z M107.4,1067.6
		h-0.9v-0.9h0.9V1067.6z M109.1,1185.5h-0.9v-0.9h0.9V1185.5z M109.1,1079.9h-0.9v-0.9h0.9V1079.9z M109.1,1067.6h-0.9v-0.9h0.9
		V1067.6z M110.9,1185.5H110v-0.9h0.9V1185.5z M110.9,1079.9H110v-0.9h0.9V1079.9z M110.9,1067.6H110v-0.9h0.9V1067.6z
		 M112.6,1185.5h-0.9v-0.9h0.9V1185.5z M112.6,1079.9h-0.9v-0.9h0.9V1079.9z M112.6,1067.6h-0.9v-0.9h0.9V1067.6z M114.4,1185.5
		h-0.9v-0.9h0.9V1185.5z M114.4,1079.9h-0.9v-0.9h0.9V1079.9z M114.4,1067.6h-0.9v-0.9h0.9V1067.6z M116.1,1185.5h-0.9v-0.9h0.9
		V1185.5z M116.1,1079.9h-0.9v-0.9h0.9V1079.9z M116.1,1067.6h-0.9v-0.9h0.9V1067.6z M117.9,1185.5H117v-0.9h0.9V1185.5z
		 M117.9,1079.9H117v-0.9h0.9V1079.9z M117.9,1067.6H117v-0.9h0.9V1067.6z M119.6,1185.5h-0.9v-0.9h0.9V1185.5z M119.6,1079.9h-0.9
		v-0.9h0.9V1079.9z M119.6,1067.6h-0.9v-0.9h0.9V1067.6z M121.4,1185.5h-0.9v-0.9h0.9V1185.5z M121.4,1079.9h-0.9v-0.9h0.9V1079.9z
		 M121.4,1067.6h-0.9v-0.9h0.9V1067.6z M123.1,1185.5h-0.9v-0.9h0.9V1185.5z M123.1,1079.9h-0.9v-0.9h0.9V1079.9z M123.1,1067.6
		h-0.9v-0.9h0.9V1067.6z M124.8,1185.5h-0.9v-0.9h0.9V1185.5z M124.8,1079.9h-0.9v-0.9h0.9V1079.9z M124.8,1067.6h-0.9v-0.9h0.9
		V1067.6z M126.6,1185.5h-0.9v-0.9h0.9V1185.5z M126.6,1079.9h-0.9v-0.9h0.9V1079.9z M126.6,1067.6h-0.9v-0.9h0.9V1067.6z
		 M128.3,1185.5h-0.9v-0.9h0.9V1185.5z M128.3,1079.9h-0.9v-0.9h0.9V1079.9z M128.3,1067.6h-0.9v-0.9h0.9V1067.6z M130.1,1185.5
		h-0.9v-0.9h0.9V1185.5z M130.1,1079.9h-0.9v-0.9h0.9V1079.9z M130.1,1067.6h-0.9v-0.9h0.9V1067.6z M131.8,1185.5H131v-0.9h0.9
		L131.8,1185.5L131.8,1185.5z M131.8,1079.9H131v-0.9h0.9L131.8,1079.9L131.8,1079.9z M131.8,1067.6H131v-0.9h0.9L131.8,1067.6
		L131.8,1067.6z M133.6,1185.5h-0.9v-0.9h0.9V1185.5z M133.6,1079.9h-0.9v-0.9h0.9V1079.9z M133.6,1067.6h-0.9v-0.9h0.9V1067.6z
		 M135.3,1185.5h-0.9v-0.9h0.9V1185.5z M135.3,1079.9h-0.9v-0.9h0.9V1079.9z M135.3,1067.6h-0.9v-0.9h0.9V1067.6z M137.1,1185.5
		h-0.9v-0.9h0.9V1185.5z M137.1,1079.9h-0.9v-0.9h0.9V1079.9z M137.1,1067.6h-0.9v-0.9h0.9V1067.6z M138.8,1185.5h-0.9v-0.9h0.9
		V1185.5z M138.8,1079.9h-0.9v-0.9h0.9V1079.9z M138.8,1067.6h-0.9v-0.9h0.9V1067.6z M140.6,1185.5h-0.9v-0.9h0.9V1185.5z
		 M140.6,1079.9h-0.9v-0.9h0.9V1079.9z M140.6,1067.6h-0.9v-0.9h0.9V1067.6z M142.3,1185.5h-0.9v-0.9h0.9V1185.5z M142.3,1079.9
		h-0.9v-0.9h0.9V1079.9z M142.3,1067.6h-0.9v-0.9h0.9V1067.6z M144,1185.5h-0.9v-0.9h0.9V1185.5z M144,1079.9h-0.9v-0.9h0.9V1079.9z
		 M144,1067.6h-0.9v-0.9h0.9V1067.6z M145.8,1185.5h-0.9v-0.9h0.9V1185.5z M145.8,1079.9h-0.9v-0.9h0.9V1079.9z M145.8,1067.6h-0.9
		v-0.9h0.9V1067.6z M147.5,1185.5h-0.9v-0.9h0.9V1185.5z M149.3,1185.5h-0.9v-0.9h0.9V1185.5z M151,1185.5h-0.9v-0.9h0.9V1185.5z
		 M152.8,1185.5h-0.9v-0.9h0.9V1185.5z M154.5,1185.5h-0.9v-0.9h0.9V1185.5z M156.3,1185.5h-0.9v-0.9h0.9V1185.5z M158,1185.5h-0.9
		v-0.9h0.9V1185.5z M159.8,1185.5h-0.9v-0.9h0.9V1185.5z M161.5,1185.5h-0.9v-0.9h0.9V1185.5z M163.3,1185.5h-0.9v-0.9h0.9V1185.5z
		 M163.3,1079.9h-0.9v-0.9h0.9V1079.9z M163.3,1067.6h-0.9v-0.9h0.9V1067.6z M165,1185.5h-0.9v-0.9h0.9V1185.5z M165,1079.9h-0.9
		v-0.9h0.9V1079.9z M165,1067.6h-0.9v-0.9h0.9V1067.6z M166.7,1185.5h-0.9v-0.9h0.9V1185.5z M168.5,1185.5h-0.9v-0.9h0.9V1185.5z
		 M170.2,1185.5h-0.9v-0.9h0.9V1185.5z M172,1185.5h-0.9v-0.9h0.9V1185.5z M173.7,1185.5h-0.9v-0.9h0.9V1185.5z M175.5,1185.5h-0.9
		v-0.9h0.9V1185.5z M177.2,1185.5h-0.9v-0.9h0.9V1185.5z M179,1185.5h-0.9v-0.9h0.9V1185.5z M180.7,1185.5h-0.9v-0.9h0.9V1185.5z
		 M182.5,1185.5h-0.9v-0.9h0.9V1185.5z M184.2,1185.5h-0.9v-0.9h0.9V1185.5z M186,1185.5h-0.9v-0.9h0.9V1185.5z M187.7,1185.5h-0.9
		v-0.9h0.9V1185.5z M189.4,1185.5h-0.9v-0.9h0.9V1185.5z M191.2,1185.5h-0.9v-0.9h0.9V1185.5z M192.9,1185.5H192v-0.9h0.9V1185.5z
		 M194.7,1185.5h-0.9v-0.9h0.9V1185.5z M196.4,1185.5h-0.9v-0.9h0.9V1185.5z M198.2,1185.5h-0.9v-0.9h0.9V1185.5z M199.9,1185.5H199
		v-0.9h0.9V1185.5z M201.7,1185.5h-0.9v-0.9h0.9V1185.5z M203.4,1185.5h-0.9v-0.9h0.9V1185.5z M205.2,1185.5h-0.9v-0.9h0.9V1185.5z
		 M206.9,1185.5H206v-0.9h0.9V1185.5z M208.7,1185.5h-0.9v-0.9h0.9V1185.5z M210.4,1185.5h-0.9v-0.9h0.9V1185.5z M212.1,1185.5h-0.9
		v-0.9h0.9V1185.5z M213.9,1185.5H213v-0.9h0.9V1185.5z M215.6,1185.5h-0.9v-0.9h0.9V1185.5z M217.4,1185.5h-0.9v-0.9h0.9V1185.5z
		 M219.1,1185.5h-0.9v-0.9h0.9V1185.5z M220.9,1185.5H220v-0.9h0.9V1185.5z M222.6,1185.5h-0.9v-0.9h0.9V1185.5z M224.4,1185.5h-0.9
		v-0.9h0.9V1185.5z M226.1,1185.5h-0.9v-0.9h0.9V1185.5z M227.9,1185.5H227v-0.9h0.9V1185.5z M229.6,1185.5h-0.9v-0.9h0.9V1185.5z
		 M231.4,1185.5h-0.9v-0.9h0.9V1185.5z M204.7,1171c-21.2,0-38.4-17.2-38.4-38.4c0-21.1,17-38.3,38-38.4c0.1,0,0.3,0,0.4,0
		c17.1,0,31.6,11.2,36.5,26.7c1.2,3.6,1.9,7.7,1.9,11.7C243.1,1153.8,225.9,1171,204.7,1171z M233.1,1185.5h-0.9v-0.9h0.9V1185.5z
		 M234.8,1185.5h-0.9v-0.9h0.9V1185.5z M236.6,1185.5h-0.9v-0.9h0.9V1185.5z M238.3,1185.5h-0.9v-0.9h0.9V1185.5z M240.1,1185.5
		h-0.9v-0.9h0.9V1185.5z M241.8,1185.5h-0.9v-0.9h0.9V1185.5z M243.6,1185.5h-0.9v-0.9h0.9V1185.5z M243.6,1079.9h-0.9v-0.9h0.9
		V1079.9z M243.6,1067.6h-0.9v-0.9h0.9V1067.6z M245.3,1185.5h-0.9v-0.9h0.9V1185.5z M245.3,1079.9h-0.9v-0.9h0.9V1079.9z
		 M245.3,1067.6h-0.9v-0.9h0.9V1067.6z M247.1,1185.5h-0.9v-0.9h0.9V1185.5z M247.9,1079h0.9v0.9h-0.9V1079z M248.8,1185.5h-0.9
		v-0.9h0.9V1185.5z M249.7,1079h0.9v0.9h-0.9V1079z M250.6,1185.5h-0.9v-0.9h0.9V1185.5z M251.4,1079h0.9v0.9h-0.9V1079z
		 M252.3,1185.5h-0.9v-0.9h0.9V1185.5z M253.2,1079h0.9v0.9h-0.9V1079z M254,1185.5h-0.9v-0.9h0.9V1185.5z M254.9,1079h0.9v0.9h-0.9
		V1079z M255.8,1185.5h-0.9v-0.9h0.9V1185.5z M256.7,1079h0.9v0.9h-0.9V1079z M257.5,1185.5h-0.9v-0.9h0.9V1185.5z M258.4,1079h0.9
		v0.9h-0.9V1079z M259.3,1185.5h-0.9v-0.9h0.9V1185.5z M260.2,1079h0.9v0.9h-0.9V1079z M261,1185.5h-0.9v-0.9h0.9V1185.5z
		 M261.9,1079h0.9v0.9h-0.9V1079z M262.8,1185.5h-0.9v-0.9h0.9V1185.5z M263.7,1079h0.9v0.9h-0.9V1079z M264.5,1185.5h-0.9v-0.9h0.9
		V1185.5z M265.4,1079h0.9v0.9h-0.9V1079z M266.3,1185.5h-0.9v-0.9h0.9V1185.5z M267.1,1079h0.9v0.9h-0.9V1079z M268,1185.5h-0.9
		v-0.9h0.9V1185.5z M268.9,1079h0.9v0.9h-0.9V1079z M269.8,1185.5h-0.9v-0.9h0.9V1185.5z M270.6,1079h0.9v0.9h-0.9V1079z
		 M271.5,1185.5h-0.9v-0.9h0.9V1185.5z M272.4,1079h0.9v0.9h-0.9V1079z M273.3,1185.5h-0.9v-0.9h0.9V1185.5z M274.1,1079h0.9v0.9
		h-0.9V1079z M275,1185.5h-0.9v-0.9h0.9V1185.5z M275.9,1079h0.9v0.9h-0.9V1079z M276.7,1185.5h-0.9v-0.9h0.9V1185.5z M277.6,1079
		h0.9v0.9h-0.9V1079z M278.5,1185.5h-0.9v-0.9h0.9V1185.5z M279.4,1079h0.9v0.9h-0.9V1079z M280.2,1185.5h-0.9v-0.9h0.9V1185.5z
		 M281.1,1079h0.9v0.9h-0.9V1079z M282,1185.5h-0.9v-0.9h0.9V1185.5z M282.9,1079h0.9v0.9h-0.9V1079z M283.7,1185.5h-0.9v-0.9h0.9
		V1185.5z M284.6,1079h0.9v0.9h-0.9V1079z M285.5,1185.5h-0.9v-0.9h0.9V1185.5z M286.4,1079h0.9v0.9h-0.9V1079z M287.2,1185.5h-0.9
		v-0.9h0.9V1185.5z M288.1,1079h0.9v0.9h-0.9V1079z M289,1185.5h-0.9v-0.9h0.9V1185.5z M290.7,1185.5h-0.9v-0.9h0.9V1185.5z
		 M292.5,1185.5h-0.9v-0.9h0.9V1185.5z M294.2,1185.5h-0.9v-0.9h0.9V1185.5z M296,1185.5h-0.9v-0.9h0.9V1185.5z M297.7,1185.5h-0.9
		v-0.9h0.9V1185.5z M299.4,1185.5h-0.9v-0.9h0.9V1185.5z M301.2,1185.5h-0.9v-0.9h0.9V1185.5z M302.9,1185.5H302v-0.9h0.9V1185.5z
		 M304.7,1185.5h-0.9v-0.9h0.9V1185.5z M306.4,1185.5h-0.9v-0.9h0.9V1185.5z M307.3,1079.9h-0.9v-0.9h0.9V1079.9z M307.3,1067.6
		h-0.9v-0.9h0.9V1067.6z M308.2,1185.5h-0.9v-0.9h0.9V1185.5z M309,1079.9h-0.9v-0.9h0.9V1079.9z M309,1067.6h-0.9v-0.9h0.9V1067.6z
		 M309.9,1185.5H309v-0.9h0.9V1185.5z M311.7,1185.5h-0.9v-0.9h0.9V1185.5z M313.4,1185.5h-0.9v-0.9h0.9V1185.5z M315.2,1185.5h-0.9
		v-0.9h0.9V1185.5z M316.9,1185.5H316v-0.9h0.9V1185.5z M317.8,1079.9h-0.9v-0.9h0.9V1079.9z M318.7,1185.5h-0.9v-0.9h0.9V1185.5z
		 M319.5,1079.9h-0.9v-0.9h0.9V1079.9z M320.4,1185.5h-0.9v-0.9h0.9V1185.5z M321.3,1079.9h-0.9v-0.9h0.9V1079.9z M322.1,1185.5
		h-0.9v-0.9h0.9V1185.5z M323,1079.9h-0.9v-0.9h0.9V1079.9z M323,1067.6h-0.9v-0.9h0.9V1067.6z M323.9,1185.5H323v-0.9h0.9V1185.5z
		 M324.8,1079.9h-0.9v-0.9h0.9V1079.9z M325.6,1185.5h-0.9v-0.9h0.9V1185.5z M326.5,1079.9h-0.9v-0.9h0.9V1079.9z M327.4,1185.5
		h-0.9v-0.9h0.9V1185.5z M328.3,1079.9h-0.9v-0.9h0.9V1079.9z M328.3,1067.6h-0.9v-0.9h0.9V1067.6z M329.1,1185.5h-0.9v-0.9h0.9
		V1185.5z M330,1079.9h-0.9v-0.9h0.9V1079.9z M330.9,1185.5H330v-0.9h0.9V1185.5z M331.7,1079.9h-0.9v-0.9h0.9V1079.9z
		 M332.6,1185.5h-0.9v-0.9h0.9V1185.5z M333.5,1079.9h-0.9v-0.9h0.9V1079.9z M334.4,1185.5h-0.9v-0.9h0.9V1185.5z M335.2,1079.9
		h-0.9v-0.9h0.9V1079.9z M336.1,1185.5h-0.9v-0.9h0.9V1185.5z M337,1079.9h-0.9v-0.9h0.9V1079.9z M337.9,1185.5H337v-0.9h0.9V1185.5
		z M338.7,1079.9h-0.8v-0.9h0.9L338.7,1079.9L338.7,1079.9z M339.6,1185.5h-0.9v-0.9h0.9V1185.5z M340.5,1079.9h-0.9v-0.9h0.9
		V1079.9z M341.4,1185.5h-0.9v-0.9h0.9V1185.5z M343.1,1185.5h-0.9v-0.9h0.9V1185.5z M344.8,1185.5h-0.9v-0.9h0.9V1185.5z
		 M346.6,1185.5h-0.9v-0.9h0.9V1185.5z M348.3,1185.5h-0.9v-0.9h0.9V1185.5z M349.2,1152.3h-7v-41.9h7V1152.3z M349.2,1079.9h-0.9
		v-0.9h0.9V1079.9z M350.1,1185.5h-0.9v-0.9h0.9V1185.5z M351,1079.9h-0.9v-0.9h0.9V1079.9z M351.8,1185.5h-0.9v-0.9h0.9V1185.5z
		 M352.7,1079.9h-0.9v-0.9h0.9V1079.9z M352.7,1067.6h-0.9v-0.9h0.9V1067.6z M353.6,1185.5h-0.9v-0.9h0.9V1185.5z M354.4,1079.9
		h-0.9v-0.9h0.9V1079.9z M354.4,1067.6h-0.9v-0.9h0.9V1067.6z M355.3,1185.5h-0.9v-0.9h0.9V1185.5z M356.2,1079.9h-0.9v-0.9h0.9
		V1079.9z M356.2,1067.6h-0.9v-0.9h0.9V1067.6z M357.1,1185.5h-0.9v-0.9h0.9V1185.5z M357.9,1079.9H357v-0.9h0.9V1079.9z
		 M357.9,1067.6H357v-0.9h0.9V1067.6z M358.8,1185.5h-0.9v-0.9h0.9V1185.5z M359.7,1079.9h-0.9v-0.9h0.9V1079.9z M359.7,1067.6h-0.9
		v-0.9h0.9V1067.6z M360.6,1185.5h-0.9v-0.9h0.9V1185.5z M361.4,1079.9h-0.9v-0.9h0.9V1079.9z M361.4,1067.6h-0.9v-0.9h0.9V1067.6z
		 M362.3,1185.5h-0.9v-0.9h0.9V1185.5z M363.2,1079.9h-0.9v-0.9h0.9V1079.9z M363.2,1067.6h-0.9v-0.9h0.9V1067.6z M364,1185.5h-0.8
		v-0.9h0.9L364,1185.5L364,1185.5z M364.9,1079.9H364v-0.9h0.9V1079.9z M364.9,1067.6H364v-0.9h0.9V1067.6z M365.8,1185.5h-0.9v-0.9
		h0.9V1185.5z M366.7,1079.9h-0.9v-0.9h0.9V1079.9z M366.7,1067.6h-0.9v-0.9h0.9V1067.6z M367.5,1185.5h-0.9v-0.9h0.9V1185.5z
		 M368.4,1079.9h-0.9v-0.9h0.9V1079.9z M368.4,1067.6h-0.9v-0.9h0.9V1067.6z M369.3,1185.5h-0.9v-0.9h0.9V1185.5z M370.2,1079.9
		h-0.9v-0.9h0.9V1079.9z M370.2,1067.6h-0.9v-0.9h0.9V1067.6z M371,1185.5h-0.9v-0.9h0.9V1185.5z M371.9,1079.9H371v-0.9h0.9V1079.9
		z M371.9,1067.6H371v-0.9h0.9V1067.6z M372.8,1185.5h-0.9v-0.9h0.9V1185.5z M373.7,1079.9h-0.9v-0.9h0.9V1079.9z M373.7,1067.6
		h-0.9v-0.9h0.9V1067.6z M374.5,1185.5h-0.9v-0.9h0.9V1185.5z M376.3,1185.5h-0.9v-0.9h0.9V1185.5z M378,1185.5h-0.9v-0.9h0.9
		V1185.5z M379.8,1185.5h-0.9v-0.9h0.9V1185.5z M380.6,1157.6h-6.1V1107h6.1V1157.6z M380.6,1079.9h-0.9v-0.9h0.9V1079.9z
		 M380.6,1067.6h-0.9v-0.9h0.9V1067.6z M381.5,1185.5h-0.9v-0.9h0.9V1185.5z M382.4,1079.9h-0.9v-0.9h0.9V1079.9z M382.4,1067.6
		h-0.9v-0.9h0.9V1067.6z M383.3,1185.5h-0.9v-0.9h0.9V1185.5z M384.1,1079.9h-0.8v-0.9h0.9L384.1,1079.9L384.1,1079.9z
		 M384.1,1067.6h-0.8v-0.9h0.9L384.1,1067.6L384.1,1067.6z M385,1185.5h-0.9v-0.9h0.9V1185.5z M385.9,1079.9H385v-0.9h0.9V1079.9z
		 M385.9,1067.6H385v-0.9h0.9V1067.6z M386.7,1185.5h-0.9v-0.9h0.9V1185.5z M387.6,1079.9h-0.9v-0.9h0.9V1079.9z M387.6,1067.6h-0.9
		v-0.9h0.9V1067.6z M388.5,1185.5h-0.9v-0.9h0.9V1185.5z M389.4,1079.9h-0.9v-0.9h0.9V1079.9z M389.4,1067.6h-0.9v-0.9h0.9V1067.6z
		 M390.2,1185.5h-0.9v-0.9h0.9V1185.5z M391.1,1079.9h-0.9v-0.9h0.9V1079.9z M391.1,1067.6h-0.9v-0.9h0.9V1067.6z M392,1185.5h-0.9
		v-0.9h0.9V1185.5z M392.9,1079.9H392v-0.9h0.9V1079.9z M392.9,1067.6H392v-0.9h0.9V1067.6z M393.7,1185.5h-0.9v-0.9h0.9V1185.5z
		 M394.6,1079.9h-0.9v-0.9h0.9V1079.9z M394.6,1067.6h-0.9v-0.9h0.9V1067.6z M395.5,1185.5h-0.9v-0.9h0.9V1185.5z M396.4,1079.9
		h-0.9v-0.9h0.9V1079.9z M396.4,1067.6h-0.9v-0.9h0.9V1067.6z M397.2,1185.5h-0.9v-0.9h0.9V1185.5z M398.1,1079.9h-0.9v-0.9h0.9
		V1079.9z M398.1,1067.6h-0.9v-0.9h0.9V1067.6z M399,1185.5h-0.9v-0.9h0.9V1185.5z M399.8,1079.9h-0.9v-0.9h0.9V1079.9z
		 M399.8,1067.6h-0.9v-0.9h0.9V1067.6z M400.7,1185.5h-0.9v-0.9h0.9V1185.5z M401.6,1079.9h-0.9v-0.9h0.9V1079.9z M401.6,1067.6
		h-0.9v-0.9h0.9V1067.6z M402.5,1185.5h-0.9v-0.9h0.9V1185.5z M403.3,1079.9h-0.9v-0.9h0.9V1079.9z M403.3,1067.6h-0.9v-0.9h0.9
		V1067.6z M404.2,1185.5h-0.9v-0.9h0.9V1185.5z M405.1,1079.9h-0.9v-0.9h0.9V1079.9z M405.1,1067.6h-0.9v-0.9h0.9V1067.6z
		 M406,1185.5h-0.9v-0.9h0.9V1185.5z M407.7,1185.5h-0.9v-0.9h0.9V1185.5z M409.4,1185.5h-0.8v-0.9h0.9L409.4,1185.5L409.4,1185.5z
		 M411.2,1185.5h-0.9v-0.9h0.9V1185.5z M412.1,1159.3h-5.2v-55h5.2V1159.3z M412.1,1079.9h-0.9v-0.9h0.9V1079.9z M412.1,1067.6h-0.9
		v-0.9h0.9V1067.6z M412.9,1185.5H412v-0.9h0.9V1185.5z M413.8,1079.9h-0.9v-0.9h0.9V1079.9z M413.8,1067.6h-0.9v-0.9h0.9V1067.6z
		 M414.7,1185.5h-0.9v-0.9h0.9V1185.5z M415.6,1079.9h-0.9v-0.9h0.9V1079.9z M415.6,1067.6h-0.9v-0.9h0.9V1067.6z M416.4,1185.5
		h-0.9v-0.9h0.9V1185.5z M417.3,1079.9h-0.9v-0.9h0.9V1079.9z M417.3,1067.6h-0.9v-0.9h0.9V1067.6z M418.2,1185.5h-0.9v-0.9h0.9
		V1185.5z M419,1079.9h-0.9v-0.9h0.9V1079.9z M419,1067.6h-0.9v-0.9h0.9V1067.6z M419.9,1185.5H419v-0.9h0.9V1185.5z M420.8,1079.9
		h-0.9v-0.9h0.9V1079.9z M420.8,1067.6h-0.9v-0.9h0.9V1067.6z M421.7,1185.5h-0.9v-0.9h0.9V1185.5z M422.5,1079.9h-0.9v-0.9h0.9
		V1079.9z M422.5,1067.6h-0.9v-0.9h0.9V1067.6z M423.4,1185.5h-0.9v-0.9h0.9V1185.5z M424.3,1079.9h-0.9v-0.9h0.9V1079.9z
		 M424.3,1067.6h-0.9v-0.9h0.9V1067.6z M425.2,1185.5h-0.9v-0.9h0.9V1185.5z M426,1079.9h-0.9v-0.9h0.9V1079.9z M426,1067.6h-0.9
		v-0.9h0.9V1067.6z M426.9,1185.5H426v-0.9h0.9V1185.5z M427.8,1079.9h-0.9v-0.9h0.9V1079.9z M427.8,1067.6h-0.9v-0.9h0.9V1067.6z
		 M428.7,1185.5h-0.9v-0.9h0.9V1185.5z M429.5,1079.9h-0.8v-0.9h0.9L429.5,1079.9L429.5,1079.9z M429.5,1067.6h-0.8v-0.9h0.9
		L429.5,1067.6L429.5,1067.6z M430.4,1185.5h-0.9v-0.9h0.9V1185.5z M431.3,1079.9h-0.9v-0.9h0.9V1079.9z M431.3,1067.6h-0.9v-0.9
		h0.9V1067.6z M432.1,1185.5h-0.9v-0.9h0.9V1185.5z M433,1079.9h-0.9v-0.9h0.9V1079.9z M433,1067.6h-0.9v-0.9h0.9V1067.6z
		 M433.9,1185.5H433v-0.9h0.9V1185.5z M434.8,1079.9h-0.9v-0.9h0.9V1079.9z M434.8,1067.6h-0.9v-0.9h0.9V1067.6z M435.6,1185.5h-0.9
		v-0.9h0.9V1185.5z M436.5,1079.9h-0.9v-0.9h0.9V1079.9z M436.5,1067.6h-0.9v-0.9h0.9V1067.6z M437.4,1185.5h-0.9v-0.9h0.9V1185.5z
		 M438.3,1102.6h6.1v59.4h-6.1V1102.6z M439.1,1185.5h-0.9v-0.9h0.9V1185.5z M440.9,1185.5H440v-0.9h0.9V1185.5z M442.6,1185.5h-0.9
		v-0.9h0.9V1185.5z M444.4,1185.5h-0.9v-0.9h0.9V1185.5z M445.2,1079.9h-0.9v-0.9h0.9V1079.9z M445.2,1067.6h-0.9v-0.9h0.9V1067.6z
		 M446.1,1185.5h-0.9v-0.9h0.9V1185.5z M447,1079.9h-0.9v-0.9h0.9V1079.9z M447,1067.6h-0.9v-0.9h0.9V1067.6z M447.9,1185.5H447
		v-0.9h0.9V1185.5z M448.7,1079.9h-0.9v-0.9h0.9V1079.9z M448.7,1067.6h-0.9v-0.9h0.9V1067.6z M449.6,1185.5h-0.9v-0.9h0.9V1185.5z
		 M450.5,1079.9h-0.9v-0.9h0.9V1079.9z M450.5,1067.6h-0.9v-0.9h0.9V1067.6z M451.4,1185.5h-0.9v-0.9h0.9V1185.5z M452.2,1079.9
		h-0.9v-0.9h0.9V1079.9z M452.2,1067.6h-0.9v-0.9h0.9V1067.6z M453.1,1185.5h-0.9v-0.9h0.9V1185.5z M454,1079.9h-0.9v-0.9h0.9
		V1079.9z M454,1067.6h-0.9v-0.9h0.9V1067.6z M454.8,1185.5H454v-0.9h0.9L454.8,1185.5L454.8,1185.5z M455.7,1079.9h-0.9v-0.9h0.9
		V1079.9z M455.7,1067.6h-0.9v-0.9h0.9V1067.6z M456.6,1185.5h-0.9v-0.9h0.9V1185.5z M457.5,1079.9h-0.9v-0.9h0.9V1079.9z
		 M457.5,1067.6h-0.9v-0.9h0.9V1067.6z M458.3,1185.5h-0.9v-0.9h0.9V1185.5z M459.2,1079.9h-0.9v-0.9h0.9V1079.9z M459.2,1067.6
		h-0.9v-0.9h0.9V1067.6z M460.1,1185.5h-0.9v-0.9h0.9V1185.5z M461,1079.9h-0.9v-0.9h0.9V1079.9z M461,1067.6h-0.9v-0.9h0.9V1067.6z
		 M461.8,1185.5h-0.9v-0.9h0.9V1185.5z M462.7,1079.9h-0.9v-0.9h0.9V1079.9z M462.7,1067.6h-0.9v-0.9h0.9V1067.6z M463.6,1185.5
		h-0.9v-0.9h0.9V1185.5z M464.4,1079.9h-0.9v-0.9h0.9V1079.9z M464.4,1067.6h-0.9v-0.9h0.9V1067.6z M465.3,1185.5h-0.9v-0.9h0.9
		V1185.5z M466.2,1079.9h-0.9v-0.9h0.9V1079.9z M466.2,1067.6h-0.9v-0.9h0.9V1067.6z M467.1,1185.5h-0.9v-0.9h0.9V1185.5z
		 M467.9,1079.9H467v-0.9h0.9V1079.9z M467.9,1067.6H467v-0.9h0.9V1067.6z M468.8,1185.5h-0.9v-0.9h0.9V1185.5z M469.7,1079.9h-0.9
		v-0.9h0.9V1079.9z M469.7,1067.6h-0.9v-0.9h0.9V1067.6z M470.6,1185.5h-0.9v-0.9h0.9V1185.5z M472.3,1185.5h-0.9v-0.9h0.9V1185.5z
		 M474.1,1185.5h-0.9v-0.9h0.9V1185.5z M475.8,1185.5h-0.9v-0.9h0.9V1185.5z M476.7,1079.9h-0.9v-0.9h0.9V1079.9z M476.7,1067.6
		h-0.9v-0.9h0.9V1067.6z M477.5,1185.5h-0.9v-0.9h0.9V1185.5z M478.4,1079.9h-0.9v-0.9h0.9V1079.9z M478.4,1067.6h-0.9v-0.9h0.9
		V1067.6z M479.3,1185.5h-0.9v-0.9h0.9V1185.5z M480.2,1079.9h-0.9v-0.9h0.9V1079.9z M480.2,1067.6h-0.9v-0.9h0.9V1067.6z
		 M481,1185.5h-0.9v-0.9h0.9V1185.5z M481.9,1079.9H481v-0.9h0.9V1079.9z M481.9,1067.6H481v-0.9h0.9V1067.6z M482.8,1185.5h-0.9
		v-0.9h0.9V1185.5z M483.7,1079.9h-0.9v-0.9h0.9V1079.9z M483.7,1067.6h-0.9v-0.9h0.9V1067.6z M484.5,1185.5h-0.9v-0.9h0.9V1185.5z
		 M485.4,1079.9h-0.9v-0.9h0.9V1079.9z M485.4,1067.6h-0.9v-0.9h0.9V1067.6z M486.3,1185.5h-0.9v-0.9h0.9V1185.5z M487.1,1079.9
		h-0.9v-0.9h0.9V1079.9z M487.1,1067.6h-0.9v-0.9h0.9V1067.6z M488,1185.5h-0.9v-0.9h0.9V1185.5z M488.9,1079.9H488v-0.9h0.9V1079.9
		z M488.9,1067.6H488v-0.9h0.9V1067.6z M489.8,1185.5h-0.9v-0.9h0.9V1185.5z M490.6,1079.9h-0.9v-0.9h0.9V1079.9z M490.6,1067.6
		h-0.9v-0.9h0.9V1067.6z M491.5,1185.5h-0.9v-0.9h0.9V1185.5z M492.4,1079.9h-0.9v-0.9h0.9V1079.9z M492.4,1067.6h-0.9v-0.9h0.9
		V1067.6z M493.3,1185.5h-0.9v-0.9h0.9V1185.5z M494.1,1079.9h-0.9v-0.9h0.9V1079.9z M494.1,1067.6h-0.9v-0.9h0.9V1067.6z
		 M495,1185.5h-0.9v-0.9h0.9V1185.5z M495.9,1079.9H495v-0.9h0.9V1079.9z M495.9,1067.6H495v-0.9h0.9V1067.6z M496.7,1185.5h-0.9
		v-0.9h0.9V1185.5z M497.6,1079.9h-0.9v-0.9h0.9V1079.9z M497.6,1067.6h-0.9v-0.9h0.9V1067.6z M498.5,1185.5h-0.9v-0.9h0.9V1185.5z
		 M499.4,1079.9h-0.9v-0.9h0.9V1079.9z M499.4,1067.6h-0.9v-0.9h0.9V1067.6z M500.2,1185.5h-0.8v-0.9h0.9L500.2,1185.5L500.2,1185.5
		z M501.1,1079.9h-0.9v-0.9h0.9V1079.9z M501.1,1067.6h-0.9v-0.9h0.9V1067.6z M502,1185.5h-0.9v-0.9h0.9V1185.5z M503.7,1185.5h-0.9
		v-0.9h0.9V1185.5z M505.5,1185.5h-0.9v-0.9h0.9V1185.5z M507.2,1185.5h-0.9v-0.9h0.9V1185.5z M508.1,1165.4H502v-67.2h6.1V1165.4z
		 M509,1185.5h-0.9v-0.9h0.9V1185.5z M509.8,1079.9h-0.9v-0.9h0.9V1079.9z M509.8,1067.6h-0.9v-0.9h0.9V1067.6z M510.7,1185.5h-0.9
		v-0.9h0.9V1185.5z M511.6,1079.9h-0.9v-0.9h0.9V1079.9z M511.6,1067.6h-0.9v-0.9h0.9V1067.6z M512.5,1185.5h-0.9v-0.9h0.9V1185.5z
		 M513.3,1079.9h-0.9v-0.9h0.9V1079.9z M513.3,1067.6h-0.9v-0.9h0.9V1067.6z M514.2,1185.5h-0.9v-0.9h0.9V1185.5z M515.1,1079.9
		h-0.9v-0.9h0.9V1079.9z M515.1,1067.6h-0.9v-0.9h0.9V1067.6z M515.9,1185.5H515v-0.9h0.9V1185.5z M516.8,1079.9h-0.9v-0.9h0.9
		V1079.9z M516.8,1067.6h-0.9v-0.9h0.9V1067.6z M517.7,1185.5h-0.9v-0.9h0.9V1185.5z M518.6,1079.9h-0.9v-0.9h0.9V1079.9z
		 M518.6,1067.6h-0.9v-0.9h0.9V1067.6z M519.4,1185.5h-0.9v-0.9h0.9V1185.5z M520.3,1079.9h-0.9v-0.9h0.9V1079.9z M520.3,1067.6
		h-0.9v-0.9h0.9V1067.6z M521.2,1185.5h-0.9v-0.9h0.9V1185.5z M522.1,1079.9h-0.9v-0.9h0.9V1079.9z M522.1,1067.6h-0.9v-0.9h0.9
		V1067.6z M522.9,1185.5H522v-0.9h0.9V1185.5z M523.8,1079.9h-0.9v-0.9h0.9V1079.9z M523.8,1067.6h-0.9v-0.9h0.9V1067.6z
		 M524.7,1185.5h-0.9v-0.9h0.9V1185.5z M525.5,1079.9h-0.9v-0.9h0.9V1079.9z M525.5,1067.6h-0.9v-0.9h0.9V1067.6z M526.4,1185.5
		h-0.9v-0.9h0.9V1185.5z M527.3,1079.9h-0.9v-0.9h0.9V1079.9z M527.3,1067.6h-0.9v-0.9h0.9V1067.6z M528.2,1185.5h-0.9v-0.9h0.9
		V1185.5z M529,1079.9h-0.9v-0.9h0.9V1079.9z M529,1067.6h-0.9v-0.9h0.9V1067.6z M529.9,1185.5H529v-0.9h0.9V1185.5z M530.8,1079.9
		h-0.9v-0.9h0.9V1079.9z M530.8,1067.6h-0.9v-0.9h0.9V1067.6z M531.7,1185.5h-0.9v-0.9h0.9V1185.5z M532.5,1079.9h-0.9v-0.9h0.9
		V1079.9z M532.5,1067.6h-0.9v-0.9h0.9V1067.6z M533.4,1185.5h-0.9v-0.9h0.9V1185.5z M535.1,1185.5h-0.9v-0.9h0.9V1185.5z
		 M536.9,1185.5H536v-0.9h0.9V1185.5z M538.6,1185.5h-0.9v-0.9h0.9V1185.5z M539.5,1165.4h-6.1v-67.2h6.1V1165.4z M540.4,1185.5
		h-0.9v-0.9h0.9V1185.5z M541.3,1079.9h-0.9v-0.9h0.9V1079.9L541.3,1079.9z M541.3,1067.6h-0.9v-0.9h0.9V1067.6L541.3,1067.6z
		 M542.1,1185.5h-0.9v-0.9h0.9V1185.5z M543,1079.9h-0.9v-0.9h0.9V1079.9z M543,1067.6h-0.9v-0.9h0.9V1067.6z M543.9,1185.5H543
		v-0.9h0.9V1185.5z M544.7,1079.9h-0.9v-0.9h0.9V1079.9z M544.7,1067.6h-0.9v-0.9h0.9V1067.6z M545.6,1185.5h-0.8v-0.9h0.9
		L545.6,1185.5L545.6,1185.5z M546.5,1079.9h-0.9v-0.9h0.9V1079.9z M546.5,1067.6h-0.9v-0.9h0.9V1067.6z M547.4,1185.5h-0.9v-0.9
		h0.9V1185.5z M548.2,1079.9h-0.9v-0.9h0.9V1079.9z M548.2,1067.6h-0.9v-0.9h0.9V1067.6z M549.1,1185.5h-0.9v-0.9h0.9V1185.5z
		 M550,1079.9h-0.9v-0.9h0.9V1079.9z M550,1067.6h-0.9v-0.9h0.9V1067.6z M550.9,1185.5H550v-0.9h0.9V1185.5z M551.7,1079.9h-0.9
		v-0.9h0.9V1079.9z M551.7,1067.6h-0.9v-0.9h0.9V1067.6z M552.6,1185.5h-0.9v-0.9h0.9V1185.5z M553.5,1079.9h-0.9v-0.9h0.9V1079.9z
		 M553.5,1067.6h-0.9v-0.9h0.9V1067.6z M554.3,1185.5h-0.9v-0.9h0.9V1185.5z M555.2,1079.9h-0.9v-0.9h0.9V1079.9z M555.2,1067.6
		h-0.9v-0.9h0.9V1067.6z M556.1,1185.5h-0.9v-0.9h0.9V1185.5z M557,1079.9h-0.9v-0.9h0.9V1079.9z M557,1067.6h-0.9v-0.9h0.9V1067.6z
		 M557.8,1185.5H557v-0.9h0.9v0.9H557.8z M558.7,1079.9h-0.9v-0.9h0.9V1079.9z M558.7,1067.6h-0.9v-0.9h0.9V1067.6z M559.6,1185.5
		h-0.9v-0.9h0.9V1185.5z M560.5,1079.9h-0.9v-0.9h0.9V1079.9z M560.5,1067.6h-0.9v-0.9h0.9V1067.6z M561.3,1185.5h-0.9v-0.9h0.9
		V1185.5z M562.2,1079.9h-0.9v-0.9h0.9V1079.9z M562.2,1067.6h-0.9v-0.9h0.9V1067.6z M563.1,1185.5h-0.9v-0.9h0.9V1185.5z
		 M563.9,1079.9H563v-0.9h0.9V1079.9z M563.9,1067.6H563v-0.9h0.9V1067.6z M564.8,1185.5h-0.9v-0.9h0.9V1185.5z M565.7,1079.9h-0.9
		v-0.9h0.9V1079.9z M565.7,1067.6h-0.9v-0.9h0.9V1067.6z M565.7,1097.3h6.1v69.8h-6.1V1097.3z M566.6,1185.5h-0.9v-0.9h0.9V1185.5z
		 M568.3,1185.5h-0.9v-0.9h0.9V1185.5z M570.1,1185.5h-0.9v-0.9h0.9V1185.5z M571.8,1185.5h-0.9v-0.9h0.9V1185.5z M572.7,1079.9
		h-0.9v-0.9h0.9V1079.9z M572.7,1067.6h-0.9v-0.9h0.9V1067.6z M573.5,1185.5h-0.9v-0.9h0.9V1185.5z M574.4,1079.9h-0.9v-0.9h0.9
		V1079.9z M574.4,1067.6h-0.9v-0.9h0.9V1067.6z M575.3,1185.5h-0.9v-0.9h0.9V1185.5z M576.2,1079.9h-0.9v-0.9h0.9V1079.9z
		 M576.2,1067.6h-0.9v-0.9h0.9V1067.6z"/>
	<path fill="#FFFFFF" d="M204.7,1095.1c-0.1,0-0.3,0-0.4,0l0.1,5c0.1,0,0.3,0,0.4,0c14.5,0,26.8,9.5,31,22.6l4.7-1.5
		C235.6,1106.1,221.4,1095.1,204.7,1095.1z"/>
</g>
</svg>
